<svg width="32" height="32" viewBox="0 0 32 32" fill="none" xmlns="http://www.w3.org/2000/svg">
<path opacity="0.1" fill-rule="evenodd" clip-rule="evenodd" d="M0 16C0 7.16344 7.16344 0 16 0C24.8366 0 32 7.16344 32 16C32 24.8366 24.8366 32 16 32C7.16344 32 0 24.8366 0 16Z" fill="white"/>
<path d="M14.46 24H17.39V16.7H19.84L20.21 13.86H17.39V12.04C17.39 11.22 17.62 10.66 18.8 10.66H20.31V8.11C20.05 8.08 19.16 8 18.12 8C15.94 8 14.46 9.33 14.46 11.76V13.86H12V16.7H14.46V24Z" fill="white"/>
</svg>
